<svg width="24" height="24" viewBox="0 0 24 24" fill="none" xmlns="http://www.w3.org/2000/svg">
<g id="icon/24/out">
<path id="out" fill-rule="evenodd" clip-rule="evenodd" d="M10.793 14.8843C10.4045 15.2743 10.4051 15.9051 10.7943 16.2943C11.1841 16.6841 11.8159 16.6841 12.2057 16.2943L16.4603 12.0397C16.4822 12.0178 16.4822 11.9822 16.4603 11.9603L12.2057 7.70568C11.8159 7.31594 11.1841 7.31594 10.7943 7.70568C10.4051 8.09489 10.4045 8.72572 10.793 9.11568L12.67 11H4C3.44771 11 3 11.4477 3 12C3 12.5523 3.44772 13 4 13H12.67L10.793 14.8843ZM19 3H5C3.89 3 3 3.9 3 5V8C3 8.55228 3.44772 9 4 9C4.55228 9 5 8.55228 5 8V5H19V19H5V16C5 15.4477 4.55228 15 4 15C3.44772 15 3 15.4477 3 16V19C3 20.1 3.89 21 5 21H19C20.1 21 21 20.1 21 19V5C21 3.9 20.1 3 19 3Z" fill="lightgray"/>
</g>
</svg>
